<mxfile host="Electron" agent="Mozilla/5.0 (Windows NT 10.0; Win64; x64) AppleWebKit/537.36 (KHTML, like Gecko) draw.io/26.2.2 Chrome/134.0.6998.178 Electron/35.1.2 Safari/537.36" version="26.2.2">
  <diagram name="Page-1" id="HRcpCqi-VgJaU47GkThU">
    <mxGraphModel dx="2868" dy="1210" grid="0" gridSize="10" guides="1" tooltips="1" connect="1" arrows="1" fold="1" page="0" pageScale="1" pageWidth="850" pageHeight="1100" math="0" shadow="0">
      <root>
        <mxCell id="0" />
        <mxCell id="1" parent="0" />
        <mxCell id="EWI9V33Ac11EoxlXO-HO-9" style="edgeStyle=orthogonalEdgeStyle;rounded=0;orthogonalLoop=1;jettySize=auto;html=1;exitX=1;exitY=0.5;exitDx=0;exitDy=0;exitPerimeter=0;entryX=0;entryY=0.5;entryDx=0;entryDy=0;" edge="1" parent="1" source="EWI9V33Ac11EoxlXO-HO-1" target="EWI9V33Ac11EoxlXO-HO-7">
          <mxGeometry relative="1" as="geometry" />
        </mxCell>
        <mxCell id="EWI9V33Ac11EoxlXO-HO-1" value="EnertiaLive" style="shape=cylinder3;whiteSpace=wrap;html=1;boundedLbl=1;backgroundOutline=1;size=15;" vertex="1" parent="1">
          <mxGeometry x="-288" y="212" width="123" height="90" as="geometry" />
        </mxCell>
        <mxCell id="EWI9V33Ac11EoxlXO-HO-3" value="TempDB" style="shape=cylinder3;whiteSpace=wrap;html=1;boundedLbl=1;backgroundOutline=1;size=15;" vertex="1" parent="1">
          <mxGeometry x="-288" y="344" width="123" height="90" as="geometry" />
        </mxCell>
        <mxCell id="EWI9V33Ac11EoxlXO-HO-5" value="EDW_Stage" style="shape=cylinder3;whiteSpace=wrap;html=1;boundedLbl=1;backgroundOutline=1;size=15;" vertex="1" parent="1">
          <mxGeometry x="185" y="136" width="123" height="90" as="geometry" />
        </mxCell>
        <mxCell id="EWI9V33Ac11EoxlXO-HO-11" style="edgeStyle=orthogonalEdgeStyle;rounded=0;orthogonalLoop=1;jettySize=auto;html=1;exitX=1;exitY=0.5;exitDx=0;exitDy=0;exitPerimeter=0;entryX=0.5;entryY=1;entryDx=0;entryDy=0;" edge="1" parent="1" source="EWI9V33Ac11EoxlXO-HO-6" target="EWI9V33Ac11EoxlXO-HO-8">
          <mxGeometry relative="1" as="geometry" />
        </mxCell>
        <mxCell id="EWI9V33Ac11EoxlXO-HO-21" style="edgeStyle=orthogonalEdgeStyle;rounded=0;orthogonalLoop=1;jettySize=auto;html=1;exitX=0.5;exitY=0;exitDx=0;exitDy=0;exitPerimeter=0;entryX=0.5;entryY=1;entryDx=0;entryDy=0;" edge="1" parent="1" source="EWI9V33Ac11EoxlXO-HO-6" target="EWI9V33Ac11EoxlXO-HO-20">
          <mxGeometry relative="1" as="geometry" />
        </mxCell>
        <mxCell id="EWI9V33Ac11EoxlXO-HO-6" value="TempDB" style="shape=cylinder3;whiteSpace=wrap;html=1;boundedLbl=1;backgroundOutline=1;size=15;" vertex="1" parent="1">
          <mxGeometry x="185" y="344" width="123" height="90" as="geometry" />
        </mxCell>
        <mxCell id="EWI9V33Ac11EoxlXO-HO-7" value="Per Table&lt;br&gt;Get all keys + Rowhash" style="shape=process;whiteSpace=wrap;html=1;backgroundOutline=1;fontSize=10;" vertex="1" parent="1">
          <mxGeometry x="-56" y="359" width="120" height="60" as="geometry" />
        </mxCell>
        <mxCell id="EWI9V33Ac11EoxlXO-HO-8" value="Join Dest with Hash to identify updates and inserts" style="shape=process;whiteSpace=wrap;html=1;backgroundOutline=1;fontSize=10;" vertex="1" parent="1">
          <mxGeometry x="406" y="293" width="171" height="60" as="geometry" />
        </mxCell>
        <mxCell id="EWI9V33Ac11EoxlXO-HO-10" style="edgeStyle=orthogonalEdgeStyle;rounded=0;orthogonalLoop=1;jettySize=auto;html=1;exitX=1;exitY=0.5;exitDx=0;exitDy=0;entryX=0;entryY=0.5;entryDx=0;entryDy=0;entryPerimeter=0;" edge="1" parent="1" source="EWI9V33Ac11EoxlXO-HO-7" target="EWI9V33Ac11EoxlXO-HO-6">
          <mxGeometry relative="1" as="geometry" />
        </mxCell>
        <mxCell id="EWI9V33Ac11EoxlXO-HO-12" value="Send keys for data that was identifed as changed or inserted" style="edgeStyle=orthogonalEdgeStyle;rounded=0;orthogonalLoop=1;jettySize=auto;html=1;exitX=0.75;exitY=1;exitDx=0;exitDy=0;entryX=0.5;entryY=1;entryDx=0;entryDy=0;entryPerimeter=0;" edge="1" parent="1" source="EWI9V33Ac11EoxlXO-HO-8" target="EWI9V33Ac11EoxlXO-HO-3">
          <mxGeometry x="0.298" relative="1" as="geometry">
            <mxPoint as="offset" />
          </mxGeometry>
        </mxCell>
        <mxCell id="EWI9V33Ac11EoxlXO-HO-13" value="Join Source with keys to return all data but only for the changed and inserted rows" style="shape=process;whiteSpace=wrap;html=1;backgroundOutline=1;fontSize=10;" vertex="1" parent="1">
          <mxGeometry x="-528" y="288" width="171" height="60" as="geometry" />
        </mxCell>
        <mxCell id="EWI9V33Ac11EoxlXO-HO-17" value="send all data that was changed or is new" style="edgeStyle=orthogonalEdgeStyle;rounded=0;orthogonalLoop=1;jettySize=auto;html=1;exitX=0.5;exitY=1;exitDx=0;exitDy=0;entryX=0.5;entryY=1;entryDx=0;entryDy=0;entryPerimeter=0;" edge="1" parent="1" source="EWI9V33Ac11EoxlXO-HO-13" target="EWI9V33Ac11EoxlXO-HO-6">
          <mxGeometry relative="1" as="geometry">
            <Array as="points">
              <mxPoint x="-442" y="506" />
              <mxPoint x="247" y="506" />
            </Array>
          </mxGeometry>
        </mxCell>
        <mxCell id="EWI9V33Ac11EoxlXO-HO-19" value="Process deletes for&amp;nbsp;&lt;div&gt;any key no longer in source&lt;/div&gt;" style="edgeStyle=orthogonalEdgeStyle;rounded=0;orthogonalLoop=1;jettySize=auto;html=1;exitX=0.5;exitY=0;exitDx=0;exitDy=0;entryX=1;entryY=0.5;entryDx=0;entryDy=0;entryPerimeter=0;" edge="1" parent="1" source="EWI9V33Ac11EoxlXO-HO-8" target="EWI9V33Ac11EoxlXO-HO-5">
          <mxGeometry relative="1" as="geometry" />
        </mxCell>
        <mxCell id="EWI9V33Ac11EoxlXO-HO-20" value="Only update and insert data confirmed changed or new from preceding process" style="shape=process;whiteSpace=wrap;html=1;backgroundOutline=1;fontSize=10;" vertex="1" parent="1">
          <mxGeometry x="127.5" y="258" width="238" height="60" as="geometry" />
        </mxCell>
        <mxCell id="EWI9V33Ac11EoxlXO-HO-22" style="edgeStyle=orthogonalEdgeStyle;rounded=0;orthogonalLoop=1;jettySize=auto;html=1;exitX=0.5;exitY=0;exitDx=0;exitDy=0;entryX=0.5;entryY=1;entryDx=0;entryDy=0;entryPerimeter=0;" edge="1" parent="1" source="EWI9V33Ac11EoxlXO-HO-20" target="EWI9V33Ac11EoxlXO-HO-5">
          <mxGeometry relative="1" as="geometry" />
        </mxCell>
        <mxCell id="EWI9V33Ac11EoxlXO-HO-23" value="1" style="ellipse;whiteSpace=wrap;html=1;aspect=fixed;rotation=0;gradientColor=#223548;strokeColor=none;gradientDirection=east;fillColor=#5b738b;rounded=0;pointerEvents=0;fontFamily=Helvetica;fontSize=16;fontColor=#FFFFFF;spacingTop=4;spacingBottom=4;spacingLeft=4;spacingRight=4;points=[];fontStyle=1" vertex="1" parent="1">
          <mxGeometry x="-69" y="339" width="30" height="30" as="geometry" />
        </mxCell>
        <mxCell id="EWI9V33Ac11EoxlXO-HO-24" value="2" style="ellipse;whiteSpace=wrap;html=1;aspect=fixed;rotation=0;gradientColor=#223548;strokeColor=none;gradientDirection=east;fillColor=#5b738b;rounded=0;pointerEvents=0;fontFamily=Helvetica;fontSize=16;fontColor=#FFFFFF;spacingTop=4;spacingBottom=4;spacingLeft=4;spacingRight=4;points=[];fontStyle=1" vertex="1" parent="1">
          <mxGeometry x="392" y="278" width="30" height="30" as="geometry" />
        </mxCell>
        <mxCell id="EWI9V33Ac11EoxlXO-HO-25" value="3" style="ellipse;whiteSpace=wrap;html=1;aspect=fixed;rotation=0;gradientColor=#223548;strokeColor=none;gradientDirection=east;fillColor=#5b738b;rounded=0;pointerEvents=0;fontFamily=Helvetica;fontSize=16;fontColor=#FFFFFF;spacingTop=4;spacingBottom=4;spacingLeft=4;spacingRight=4;points=[];fontStyle=1" vertex="1" parent="1">
          <mxGeometry x="517" y="439" width="30" height="30" as="geometry" />
        </mxCell>
        <mxCell id="EWI9V33Ac11EoxlXO-HO-26" value="4" style="ellipse;whiteSpace=wrap;html=1;aspect=fixed;rotation=0;gradientColor=#223548;strokeColor=none;gradientDirection=east;fillColor=#5b738b;rounded=0;pointerEvents=0;fontFamily=Helvetica;fontSize=16;fontColor=#FFFFFF;spacingTop=4;spacingBottom=4;spacingLeft=4;spacingRight=4;points=[];fontStyle=1" vertex="1" parent="1">
          <mxGeometry x="-457" y="490" width="30" height="30" as="geometry" />
        </mxCell>
        <mxCell id="EWI9V33Ac11EoxlXO-HO-27" value="5" style="ellipse;whiteSpace=wrap;html=1;aspect=fixed;rotation=0;gradientColor=#223548;strokeColor=none;gradientDirection=east;fillColor=#5b738b;rounded=0;pointerEvents=0;fontFamily=Helvetica;fontSize=16;fontColor=#FFFFFF;spacingTop=4;spacingBottom=4;spacingLeft=4;spacingRight=4;points=[];fontStyle=1" vertex="1" parent="1">
          <mxGeometry x="115" y="242" width="30" height="30" as="geometry" />
        </mxCell>
        <mxCell id="EWI9V33Ac11EoxlXO-HO-28" value="6" style="ellipse;whiteSpace=wrap;html=1;aspect=fixed;rotation=0;gradientColor=#223548;strokeColor=none;gradientDirection=east;fillColor=#5b738b;rounded=0;pointerEvents=0;fontFamily=Helvetica;fontSize=16;fontColor=#FFFFFF;spacingTop=4;spacingBottom=4;spacingLeft=4;spacingRight=4;points=[];fontStyle=1" vertex="1" parent="1">
          <mxGeometry x="506" y="146" width="30" height="30" as="geometry" />
        </mxCell>
      </root>
    </mxGraphModel>
  </diagram>
</mxfile>
